# AST/ASF file generated using VICON BodyLanguage
# -----------------------------------------------
:version 1.10
:name VICON
:units
  mass 1.0
  length 0.45
  angle deg
:documentation
   .ast/.asf automatically generated from VICON data using
   VICON BodyBuilder and BodyLanguage model FoxedUp or BRILLIANT.MOD
:root
   order TX TY TZ RX RY RZ
   axis XYZ
   position 0 0 0  
   orientation 0 0 0 
:bonedata
  begin
     id 1 
     name lhipjoint
     direction 0.682418 -0.694059 0.22932 
     length 2.25561 
     axis 0 0 0  XYZ
  end
  begin
     id 2 
     name lfemur
     direction 0.34202 -0.939693 0  
     length 6.96448  
     axis 0 0 20  XYZ
    dof rx ry rz
    limits (-160.0 20.0)
           (-70.0 70.0)
           (-60.0 70.0)
  end
  begin
     id 3 
     name ltibia
     direction 0.34202 -0.939693 0   
     length 6.88553   
     axis 0 0 20   XYZ
    dof rx
    limits (-10.0 170.0)
  end
  begin
     id 4 
     name lfoot
     direction 0.0723587 -0.198804 0.977364   
     length 1.88518   
     axis -90 7.62852e-016 20   XYZ
    dof rx rz
    limits (-45.0 90.0)
           (-70.0 20.0)
  end
  begin
     id 5 
     name ltoes
     direction 1.53558e-011 -4.21962e-011 1   
     length 0.952124   
     axis -90 7.62852e-016 20   XYZ
    dof rx
    limits (-90.0 20.0)
  end
  begin
     id 6 
     name rhipjoint
     direction -0.657603 -0.71533 0.236348   
     length 2.18854  
     axis 0 0 0  XYZ 
  end
  begin
     id 7 
     name rfemur
     direction -0.34202 -0.939693 0   
     length 6.86686   
     axis 0 0 -20   XYZ
    dof rx ry rz
    limits (-160.0 20.0)
           (-70.0 70.0)
           (-70.0 60.0)
  end
  begin
     id 8 
     name rtibia
     direction -0.34202 -0.939693 0   
     length 6.59503   
     axis 0 0 -20   XYZ
    dof rx
    limits (-10.0 170.0)
 end
 begin
     id 9 
     name rfoot
     direction -0.101977 -0.280179 0.954516   
     length 1.93723  
     axis -90 -7.62852e-016 -20   XYZ
    dof rx rz
    limits (-45.0 90.0)
           (-20.0 70.0)
  end
  begin
     id 10 
     name rtoes
     direction -1.53564e-011 -4.21897e-011 1   
     length 0.970315   
     axis -90 -7.62852e-016 -20   XYZ
    dof rx
    limits (-90.0 20.0)
  end
  begin
     id 11 
     name lowerback
     direction -0.0339559 0.999421 -0.00235966   
     length 1.88543   
     axis 0 0 0   XYZ
    dof rx ry rz
    limits (-20.0 45.0)
           (-30.0 30.0)
           (-30.0 30.0)
  end
  begin
     id 12 
     name upperback
     direction 0.00401003 0.999739 0.0224689   
     length 1.8856   
     axis 0 0 0   XYZ
    dof rx ry rz
    limits (-20.0 45.0)
           (-30.0 30.0)
           (-30.0 30.0)
  end
  begin
     id 13 
     name thorax
     direction 0.0198619 0.999546 0.0226536   
     length 1.88352   
     axis 0 0 0   XYZ
    dof rx ry rz
    limits (-20.0 45.0)
           (-30.0 30.0)
           (-30.0 30.0)
  end
  begin
     id 14 
     name lowerneck
     direction -0.0461848 0.998632 0.0245198   
     length 1.34895   
     axis 0 0 0   XYZ
    dof rx ry rz
    limits (-20.0 45.0)
           (-30.0 30.0)
           (-30.0 30.0)
  end
  begin
     id 15 
     name upperneck
     direction -0.0180627 0.994724 -0.100984   
     length 1.35214   
     axis 0 0 0   XYZ
    dof rx ry rz
    limits (-20.0 45.0)
           (-30.0 30.0)
           (-30.0 30.0)
  end
  begin
     id 16
     name head
     direction -0.00374772 0.999293 -0.037403  
     length 1.3568  
     axis 0 0 0   XYZ
    dof rx ry rz
    limits (-20.0 45.0)
           (-30.0 30.0)
           (-30.0 30.0)
  end
  begin
     id 17 
     name lclavicle
     direction 0.971773 0.191119 0.138311  
     length 2.84954  
     axis 0 0 0   XYZ
    dof ry rz
    limits (-20.0 10.0)
           (0.0 20.0)
  end
  begin
     id 18 
     name lhumerus
     direction 1 -4.4897e-011 -2.43761e-027   
     length 4.40919   
     axis 180 -30 -90   XYZ
    dof rx ry rz
    limits (-60.0 90.0)
           (-90.0 90.0)
           (-90.0 90.0)
  end
  begin
     id 19
     name lradius
     direction 1 -4.4896e-011 -9.1621e-027   
     length 3.03857   
     axis 180 -30 -90   XYZ
    dof rx
    limits (-10.0 170.0)
  end
  begin
     id 20
     name lwrist
     direction 1 -4.4896e-011 -1.41363e-026   
     length 1.51928   
     axis 1.07133e-014 90 90   XYZ
    dof ry
    limits (-180.0 0.0)
 end
  begin
     id 21 
     name lhand
     direction 1 -4.48978e-011 -2.82725e-026   
     length 0.523208   
     axis 1.80403e-014 90 90   XYZ
    dof rx rz
    limits (-90.0 90.0)
           (-45.0 45.0)
  end
  begin
     id 22 
     name lfingers
     direction 1 -4.48977e-011 -5.6545e-026   
     length 0.421824   
     axis 3.60806e-014 90 90   XYZ
    dof rx
    limits (0.0 90.0)
  end
  begin
     id 23
     name lthumb
     direction 0.707107 -6.34962e-011 0.707107   
     length 0.605657   
     axis -90 45 2.85299e-015   XYZ
    dof rx rz
    limits (-45.0 45.0)
           (-45.0 45.0)
  end
  begin
     id 24 
     name rclavicle
     direction -0.957247 0.24311 0.156766   
     length 3.12406  
     axis 0 0 0   XYZ 
    dof ry rz
    limits (-10.0 20.0)
           (-20.0 0.0)
  end
  begin
     id 25 
     name rhumerus
     direction -1 -4.48964e-011 -1.70632e-027  
     length 4.61969   
     axis 180 30 90   XYZ
    dof rx ry rz
    limits (-90.0 60.0)
           (-90.0 90.0)
           (-90.0 90.0)
  end
  begin
     id 26 
     name rradius
     direction -1 -4.48966e-011 -6.60395e-027   
     length 3.09382   
     axis 180 30 90   XYZ
    dof rx
    limits (-10.0 170.0)
  end
  begin
     id 27 
     name rwrist
     direction -1 -4.48963e-011 -1.41363e-026   
     length 1.54691   
     axis 1.07133e-014 -90 -90   XYZ
    dof ry
    limits (-180.0 0.0)
  end
  begin
     id 28
     name rhand
     direction -1 -4.49013e-011 -2.82725e-026   
     length 0.500896   
     axis 1.80403e-014 -90 -90   XYZ
    dof rx rz
    limits (-90.0 90.0)
           (-45.0 45.0)
  end
  begin
     id 29
     name rfingers
     direction -1 -4.48902e-011 -5.6545e-026   
     length 0.403835   
     axis 3.60806e-014 -90 -90   XYZ
    dof rx
    limits (0.0 90.0)
  end
  begin
     id 30
     name rthumb
     direction -0.707107 -6.34953e-011 0.707107   
     length 0.579829   
     axis -90 -45 -2.85299e-015   XYZ
    dof rx rz
    limits (-45.0 45.0)
           (-45.0 45.0)
  end
:hierarchy
  begin
    root lhipjoint rhipjoint lowerback
    lhipjoint lfemur
    lfemur ltibia
    ltibia lfoot
    lfoot ltoes
    rhipjoint rfemur
    rfemur rtibia
    rtibia rfoot
    rfoot rtoes
    lowerback upperback
    upperback thorax
    thorax lowerneck lclavicle rclavicle
    lowerneck upperneck
    upperneck head
    lclavicle lhumerus
    lhumerus lradius
    lradius lwrist
    lwrist lhand lthumb
    lhand lfingers
    rclavicle rhumerus
    rhumerus rradius
    rradius rwrist
    rwrist rhand rthumb
    rhand rfingers
  end

#!OML:ASF E:\madness\Project 1\Capture day 1\Session 1\Female1.ASF
:FULLY-SPECIFIED
:DEGREES
113
root 1.89354 16.2756 -1.44386 -10.5392 -77.9146 20.6767
lowerback 1.17953 2.5599 -4.5267
upperback 0.529316 3.31594 -2.75124
thorax -0.211515 1.63707 -0.339023
lowerneck 1.5205 2.98516 0.238643
upperneck -5.0344 3.65198 -6.32616
head -1.7148 1.93236 -2.11502
rclavicle -1.5207e-014 -2.0276e-014
rhumerus -25.1755 7.20682 -84.7942
rradius 130.728
rwrist -7.88046
rhand -15.3615 -43.0169
rfingers 7.12502
rthumb 10.8161 -72.7183
lclavicle -1.5207e-014 -2.0276e-014
lhumerus -23.1888 -26.8172 96.3166
lradius 123.99
lwrist -3.18459
lhand -30.9357 -22.418
lfingers 7.12502
lthumb -4.22108 7.51991
rfemur -16.0264 3.16247 15.1236
rtibia 25.0904
rfoot -18.731 -20.6229
rtoes 18.8488
lfemur -15.2128 -23.4819 -13.0035
ltibia 13.3153
lfoot -2.88353 16.6175
ltoes -6.10658
114
root 1.90619 16.2728 -1.47151 -9.74517 -77.5838 20.0178
lowerback 1.92139 2.61494 -4.35935
upperback 0.226504 3.32399 -2.91806
thorax -0.919314 1.65334 -0.648836
lowerneck 1.67206 3.0501 0.402644
upperneck -5.10999 3.74117 -6.31517
head -1.76047 1.97823 -2.14728
rclavicle -7.45443e-014 2.34566e-014
rhumerus -25.2193 7.58219 -85.1619
rradius 131.092
rwrist -7.57486
rhand -15.4265 -42.7648
rfingers 7.12502
rthumb 10.7533 -72.4695
lclavicle -7.45443e-014 2.34566e-014
lhumerus -23.3055 -27.2723 96.2588
lradius 124.331
lwrist -3.44123
lhand -31.336 -22.8908
lfingers 7.12502
lthumb -4.60761 7.03906
rfemur -16.3555 3.00586 15.2631
rtibia 25.3946
rfoot -19.16 -20.6933
rtoes 19.3657
lfemur -15.7088 -23.1679 -12.7875
ltibia 13.6261
lfoot -3.18696 16.0062
ltoes -7.21916
115
root 1.92905 16.2703 -1.49719 -9.15509 -77.1747 19.5999
lowerback 2.09414 2.65437 -4.33776
upperback 0.403488 3.37154 -2.97544
thorax -0.830435 1.67333 -0.724266
lowerneck 1.37004 3.30516 0.574207
upperneck -5.11096 4.07229 -6.70982
head -1.68536 2.14231 -2.30379
rclavicle 3.91109e-014 -3.97569e-015
rhumerus -24.3846 7.85103 -85.0861
rradius 131.331
rwrist -7.46062
rhand -15.1922 -42.2402
rfingers 7.12502
rthumb 10.9794 -71.9331
lclavicle 3.91109e-014 -3.97569e-015
lhumerus -22.2956 -27.7377 95.9641
lradius 124.502
lwrist -3.63725
lhand -31.6116 -23.0653
lfingers 7.12502
lthumb -4.87369 6.85861
rfemur -16.7413 2.63442 15.3402
rtibia 25.707
rfoot -19.4888 -20.7245
rtoes 19.5974
lfemur -16.2562 -22.7391 -12.6629
ltibia 13.9227
lfoot -2.64083 15.3323
ltoes -7.11382
116
root 1.95263 16.2676 -1.52565 -8.82985 -76.7919 19.4405
lowerback 2.63861 2.74924 -4.4865
upperback 0.334812 3.45209 -2.97816
thorax -1.21628 1.71921 -0.678563
lowerneck 1.25855 3.34061 0.243366
upperneck -5.2109 4.11565 -6.48351
head -1.70564 2.16569 -2.17103
rclavicle 2.70844e-014 -3.26007e-014
rhumerus -23.8452 8.18654 -84.8677
rradius 131.636
rwrist -7.48551
rhand -15.0812 -42.1919
rfingers 7.12502
rthumb 11.0865 -71.8791
lclavicle 2.70844e-014 -3.26007e-014
lhumerus -21.5628 -28.2413 95.9856
lradius 124.548
lwrist -3.74196
lhand -31.754 -23.3317
lfingers 7.12502
lthumb -5.01124 6.58906
rfemur -17.1608 2.34696 15.3668
rtibia 26.0646
rfoot -19.5392 -20.7058
rtoes 20.3603
lfemur -16.7862 -22.2362 -12.6059
ltibia 14.2207
lfoot -3.43198 14.5627
ltoes -6.96834
117
root 1.97377 16.2625 -1.55556 -8.58772 -76.4084 19.2751
lowerback 2.85423 2.79383 -4.58011
upperback 0.520009 3.49948 -3.01817
thorax -1.1506 1.7392 -0.67521
lowerneck 1.30147 3.43153 0.0256078
upperneck -5.56231 4.2175 -6.33479
head -1.82976 2.22489 -2.09538
rclavicle 1.71949e-014 -4.37326e-015
rhumerus -22.9629 8.63697 -84.8062
rradius 131.891
rwrist -7.39805
rhand -15.2546 -42.3729
rfingers 7.12502
rthumb 10.9191 -72.069
lclavicle 1.71949e-014 -4.37326e-015
lhumerus -20.5264 -28.782 95.7002
lradius 124.644
lwrist -3.82649
lhand -31.8979 -23.4444
lfingers 7.12502
lthumb -5.15015 6.47303
rfemur -17.5157 2.12725 15.4035
rtibia 26.4913
rfoot -19.5286 -20.7379
rtoes 20.5484
lfemur -17.2688 -21.8333 -12.5475
ltibia 14.4963
lfoot -3.10904 13.8243
ltoes -7.9941
